<svg width="340" height="208" viewBox="0 0 340 208" fill="none" xmlns="http://www.w3.org/2000/svg">
<rect width="340" height="208" fill="#0B1222"/>
<path d="M39.2676 47.0723C39.0365 47.4434 38.7614 47.7233 38.4424 47.9121C38.1266 48.0977 37.7686 48.1904 37.3682 48.1904C36.6097 48.1904 35.9912 47.8551 35.5127 47.1846C35.0374 46.5107 34.7998 45.6253 34.7998 44.5283C34.7998 43.3988 35.0439 42.5068 35.5322 41.8525C36.0238 41.1982 36.6927 40.8711 37.5391 40.8711C38.1771 40.8711 38.6995 41.0729 39.1064 41.4766C39.5166 41.877 39.764 42.4352 39.8486 43.1514H38.8574C38.7956 42.6794 38.6442 42.3148 38.4033 42.0576C38.1624 41.8005 37.8548 41.6719 37.4805 41.6719C36.9336 41.6719 36.5088 41.9176 36.2061 42.4092C35.9066 42.9007 35.7568 43.5973 35.7568 44.499C35.7568 45.3812 35.9066 46.0745 36.2061 46.5791C36.5088 47.0804 36.9157 47.3311 37.4268 47.3311C37.889 47.3311 38.2617 47.1325 38.5449 46.7354C38.8281 46.335 38.9697 45.8027 38.9697 45.1387V45.0996H37.4072V44.25H39.9365V48H39.4385L39.2676 47.0723ZM42.1631 44.8311H44.7754C44.7754 44.3167 44.6631 43.918 44.4385 43.6348C44.2139 43.3516 43.8997 43.21 43.4961 43.21C43.0957 43.21 42.7799 43.3516 42.5488 43.6348C42.3177 43.9147 42.1891 44.3135 42.1631 44.8311ZM42.1631 45.5684V45.5977C42.1631 46.1543 42.2868 46.5938 42.5342 46.916C42.7816 47.2383 43.1185 47.3994 43.5449 47.3994C43.8379 47.3994 44.0869 47.318 44.292 47.1553C44.5003 46.9893 44.6436 46.7581 44.7217 46.4619H45.5957C45.4948 46.9893 45.249 47.4092 44.8584 47.7217C44.4678 48.0342 43.9925 48.1904 43.4326 48.1904C42.762 48.1904 42.2298 47.9333 41.8359 47.4189C41.4421 46.9046 41.2451 46.2015 41.2451 45.3096C41.2451 44.4307 41.4453 43.7324 41.8457 43.2148C42.2493 42.6973 42.7881 42.4385 43.4619 42.4385C44.165 42.4385 44.7119 42.6777 45.1025 43.1562C45.4964 43.6348 45.6934 44.3021 45.6934 45.1582C45.6934 45.2721 45.6917 45.3584 45.6885 45.417C45.6885 45.4723 45.6868 45.5228 45.6836 45.5684H42.1631ZM48.0615 45.3096C48.0615 45.9834 48.1852 46.5026 48.4326 46.8672C48.68 47.2285 49.0316 47.4092 49.4873 47.4092C49.9463 47.4092 50.2995 47.2285 50.5469 46.8672C50.7943 46.5026 50.918 45.9834 50.918 45.3096C50.918 44.6357 50.7943 44.1198 50.5469 43.7617C50.3027 43.4004 49.9495 43.2197 49.4873 43.2197C49.0283 43.2197 48.6751 43.4004 48.4277 43.7617C48.1836 44.1198 48.0615 44.6357 48.0615 45.3096ZM47.1582 45.3193C47.1582 44.4144 47.3633 43.708 47.7734 43.2002C48.1868 42.6924 48.7581 42.4385 49.4873 42.4385C50.223 42.4385 50.7959 42.6924 51.2061 43.2002C51.6162 43.7048 51.8213 44.4111 51.8213 45.3193C51.8213 46.2243 51.6162 46.929 51.2061 47.4336C50.7959 47.9382 50.223 48.1904 49.4873 48.1904C48.7581 48.1904 48.1868 47.9382 47.7734 47.4336C47.3633 46.9258 47.1582 46.221 47.1582 45.3193ZM56.0742 44.8701C56.696 45.0133 57.1191 45.2005 57.3438 45.4316C57.5716 45.6628 57.6855 45.9915 57.6855 46.418C57.6855 46.9714 57.4902 47.4059 57.0996 47.7217C56.7122 48.0342 56.1735 48.1904 55.4834 48.1904C54.8193 48.1904 54.305 48.0309 53.9404 47.7119C53.5791 47.3896 53.3952 46.929 53.3887 46.3301H54.2334C54.266 46.6882 54.3929 46.9583 54.6143 47.1406C54.8389 47.3197 55.1562 47.4092 55.5664 47.4092C55.9473 47.4092 56.2484 47.3294 56.4697 47.1699C56.6943 47.0104 56.8066 46.7939 56.8066 46.5205C56.8066 46.3187 56.7497 46.1641 56.6357 46.0566C56.5251 45.946 56.3086 45.8499 55.9863 45.7686L55.0049 45.5293C54.445 45.3926 54.0544 45.2087 53.833 44.9775C53.6149 44.7464 53.5059 44.4209 53.5059 44.001C53.5059 43.5257 53.6833 43.1465 54.0381 42.8633C54.3929 42.5801 54.8747 42.4385 55.4834 42.4385C56.1051 42.4385 56.5999 42.585 56.9678 42.8779C57.3389 43.1676 57.5244 43.555 57.5244 44.04V44.0596H56.665C56.6488 43.7894 56.5365 43.5778 56.3281 43.4248C56.1198 43.2686 55.8382 43.1904 55.4834 43.1904C55.1253 43.1904 54.8519 43.2572 54.6631 43.3906C54.4775 43.5241 54.3848 43.7178 54.3848 43.9717C54.3848 44.154 54.4417 44.2972 54.5557 44.4014C54.6729 44.5023 54.8958 44.5918 55.2246 44.6699L56.0742 44.8701ZM60.2979 43.459C60.4964 43.1009 60.7178 42.8421 60.9619 42.6826C61.2061 42.5199 61.499 42.4385 61.8408 42.4385C62.4756 42.4385 62.9818 42.6973 63.3594 43.2148C63.7402 43.7324 63.9307 44.4307 63.9307 45.3096C63.9307 46.1917 63.7402 46.8932 63.3594 47.4141C62.9785 47.9316 62.4723 48.1904 61.8408 48.1904C61.4958 48.1904 61.2044 48.1123 60.9668 47.9561C60.7292 47.7998 60.5062 47.541 60.2979 47.1797V50.0801H59.4189V42.6289H60.2979V43.459ZM61.6895 47.3994C62.1061 47.3994 62.4333 47.2155 62.6709 46.8477C62.9118 46.4766 63.0322 45.9639 63.0322 45.3096C63.0322 44.6585 62.9118 44.1491 62.6709 43.7812C62.4333 43.4134 62.1061 43.2295 61.6895 43.2295C61.2435 43.2295 60.9017 43.4085 60.6641 43.7666C60.4297 44.1214 60.3125 44.6357 60.3125 45.3096C60.3125 45.9867 60.4297 46.5042 60.6641 46.8623C60.9017 47.2204 61.2435 47.3994 61.6895 47.3994ZM68.584 46.1201V45.2705C68.3626 45.3942 67.9915 45.4919 67.4707 45.5635C67.2852 45.5895 67.1419 45.6123 67.041 45.6318C66.735 45.6904 66.5186 45.7865 66.3916 45.9199C66.2679 46.0534 66.2061 46.2503 66.2061 46.5107C66.2061 46.8005 66.2793 47.0202 66.4258 47.1699C66.5723 47.3164 66.7887 47.3896 67.0752 47.3896C67.5114 47.3896 67.8711 47.2708 68.1543 47.0332C68.4408 46.7956 68.584 46.4912 68.584 46.1201ZM68.6865 47.3018C68.4326 47.5882 68.1592 47.8031 67.8662 47.9463C67.5732 48.0895 67.2591 48.1611 66.9238 48.1611C66.4225 48.1611 66.0303 48.0228 65.7471 47.7461C65.4671 47.4661 65.3271 47.0804 65.3271 46.5889C65.3271 46.0452 65.472 45.6416 65.7617 45.3779C66.0514 45.111 66.5527 44.9352 67.2656 44.8506C67.3535 44.8408 67.4772 44.8262 67.6367 44.8066C68.2878 44.735 68.6133 44.4795 68.6133 44.04C68.6133 43.7601 68.5221 43.5534 68.3398 43.4199C68.1576 43.2865 67.876 43.2197 67.4951 43.2197C67.111 43.2197 66.8213 43.3011 66.626 43.4639C66.4339 43.6266 66.3379 43.8691 66.3379 44.1914H65.5469V44.1279C65.5469 43.6038 65.7227 43.1921 66.0742 42.8926C66.4258 42.5898 66.9092 42.4385 67.5244 42.4385C68.1852 42.4385 68.6735 42.5703 68.9893 42.834C69.3083 43.0977 69.4678 43.5062 69.4678 44.0596V46.8379C69.4678 47.056 69.4922 47.1992 69.541 47.2676C69.5898 47.3359 69.6745 47.3701 69.7949 47.3701C69.8145 47.3701 69.8405 47.3685 69.873 47.3652C69.9089 47.3587 69.9528 47.3506 70.0049 47.3408V48.0195C69.9072 48.0488 69.8193 48.0684 69.7412 48.0781C69.6663 48.0911 69.5915 48.0977 69.5166 48.0977C69.2399 48.0977 69.0316 48.0342 68.8916 47.9072C68.7549 47.777 68.6865 47.585 68.6865 47.3311V47.3018ZM72.7002 43.5615H71.1816V42.8096H72.7002V41.2422H73.5791V42.8096H75.5908V43.5615H73.5791V46.1006C73.5791 46.667 73.6686 47.0316 73.8477 47.1943C74.0299 47.3571 74.3571 47.4385 74.8291 47.4385C74.9235 47.4385 75.0326 47.4336 75.1562 47.4238C75.2832 47.4141 75.4281 47.3994 75.5908 47.3799V48.1367C75.3369 48.1562 75.127 48.1693 74.9609 48.1758C74.7982 48.1855 74.6615 48.1904 74.5508 48.1904C73.8607 48.1904 73.3789 48.0586 73.1055 47.7949C72.8353 47.528 72.7002 47.0137 72.7002 46.252V43.5615ZM80.2686 40.8223V41.8184H79.3359V40.8223H80.2686ZM80.2344 47.2578H82.0557V48H77.5586V47.2578H79.3555V43.5615H77.9785V42.8096H80.2344V47.2578ZM86.6602 46.1201V45.2705C86.4388 45.3942 86.0677 45.4919 85.5469 45.5635C85.3613 45.5895 85.2181 45.6123 85.1172 45.6318C84.8112 45.6904 84.5947 45.7865 84.4678 45.9199C84.3441 46.0534 84.2822 46.2503 84.2822 46.5107C84.2822 46.8005 84.3555 47.0202 84.502 47.1699C84.6484 47.3164 84.8649 47.3896 85.1514 47.3896C85.5876 47.3896 85.9473 47.2708 86.2305 47.0332C86.5169 46.7956 86.6602 46.4912 86.6602 46.1201ZM86.7627 47.3018C86.5088 47.5882 86.2354 47.8031 85.9424 47.9463C85.6494 48.0895 85.3353 48.1611 85 48.1611C84.4987 48.1611 84.1064 48.0228 83.8232 47.7461C83.5433 47.4661 83.4033 47.0804 83.4033 46.5889C83.4033 46.0452 83.5482 45.6416 83.8379 45.3779C84.1276 45.111 84.6289 44.9352 85.3418 44.8506C85.4297 44.8408 85.5534 44.8262 85.7129 44.8066C86.3639 44.735 86.6895 44.4795 86.6895 44.04C86.6895 43.7601 86.5983 43.5534 86.416 43.4199C86.2337 43.2865 85.9521 43.2197 85.5713 43.2197C85.1872 43.2197 84.8975 43.3011 84.7021 43.4639C84.5101 43.6266 84.4141 43.8691 84.4141 44.1914H83.623V44.1279C83.623 43.6038 83.7988 43.1921 84.1504 42.8926C84.502 42.5898 84.9854 42.4385 85.6006 42.4385C86.2614 42.4385 86.7497 42.5703 87.0654 42.834C87.3844 43.0977 87.5439 43.5062 87.5439 44.0596V46.8379C87.5439 47.056 87.5684 47.1992 87.6172 47.2676C87.666 47.3359 87.7507 47.3701 87.8711 47.3701C87.8906 47.3701 87.9167 47.3685 87.9492 47.3652C87.985 47.3587 88.029 47.3506 88.0811 47.3408V48.0195C87.9834 48.0488 87.8955 48.0684 87.8174 48.0781C87.7425 48.0911 87.6676 48.0977 87.5928 48.0977C87.3161 48.0977 87.1077 48.0342 86.9678 47.9072C86.8311 47.777 86.7627 47.585 86.7627 47.3311V47.3018ZM91.3477 41.5596H89.9658V40.8223H92.2266V47.2578H94.0283V48H89.5361V47.2578H91.3477V41.5596ZM103.56 43.2295C103.143 43.2295 102.814 43.4134 102.573 43.7812C102.336 44.1491 102.217 44.6585 102.217 45.3096C102.217 45.9639 102.336 46.4766 102.573 46.8477C102.814 47.2155 103.143 47.3994 103.56 47.3994C104.006 47.3994 104.346 47.2204 104.58 46.8623C104.818 46.5042 104.937 45.9867 104.937 45.3096C104.937 44.6357 104.818 44.1214 104.58 43.7666C104.346 43.4085 104.006 43.2295 103.56 43.2295ZM104.946 47.1699C104.774 47.5085 104.557 47.764 104.297 47.9365C104.04 48.1058 103.743 48.1904 103.408 48.1904C102.773 48.1904 102.266 47.9316 101.885 47.4141C101.507 46.8932 101.318 46.1917 101.318 45.3096C101.318 44.4307 101.507 43.7324 101.885 43.2148C102.266 42.6973 102.773 42.4385 103.408 42.4385C103.74 42.4385 104.033 42.5215 104.287 42.6875C104.544 42.8535 104.767 43.1074 104.956 43.4492V40.8223H105.83V48H104.946V47.1699ZM110.762 46.1201V45.2705C110.54 45.3942 110.169 45.4919 109.648 45.5635C109.463 45.5895 109.32 45.6123 109.219 45.6318C108.913 45.6904 108.696 45.7865 108.569 45.9199C108.446 46.0534 108.384 46.2503 108.384 46.5107C108.384 46.8005 108.457 47.0202 108.604 47.1699C108.75 47.3164 108.966 47.3896 109.253 47.3896C109.689 47.3896 110.049 47.2708 110.332 47.0332C110.618 46.7956 110.762 46.4912 110.762 46.1201ZM110.864 47.3018C110.61 47.5882 110.337 47.8031 110.044 47.9463C109.751 48.0895 109.437 48.1611 109.102 48.1611C108.6 48.1611 108.208 48.0228 107.925 47.7461C107.645 47.4661 107.505 47.0804 107.505 46.5889C107.505 46.0452 107.65 45.6416 107.939 45.3779C108.229 45.111 108.73 44.9352 109.443 44.8506C109.531 44.8408 109.655 44.8262 109.814 44.8066C110.465 44.735 110.791 44.4795 110.791 44.04C110.791 43.7601 110.7 43.5534 110.518 43.4199C110.335 43.2865 110.054 43.2197 109.673 43.2197C109.289 43.2197 108.999 43.3011 108.804 43.4639C108.612 43.6266 108.516 43.8691 108.516 44.1914H107.725V44.1279C107.725 43.6038 107.9 43.1921 108.252 42.8926C108.604 42.5898 109.087 42.4385 109.702 42.4385C110.363 42.4385 110.851 42.5703 111.167 42.834C111.486 43.0977 111.646 43.5062 111.646 44.0596V46.8379C111.646 47.056 111.67 47.1992 111.719 47.2676C111.768 47.3359 111.852 47.3701 111.973 47.3701C111.992 47.3701 112.018 47.3685 112.051 47.3652C112.087 47.3587 112.131 47.3506 112.183 47.3408V48.0195C112.085 48.0488 111.997 48.0684 111.919 48.0781C111.844 48.0911 111.769 48.0977 111.694 48.0977C111.418 48.0977 111.209 48.0342 111.069 47.9072C110.933 47.777 110.864 47.585 110.864 47.3311V47.3018ZM114.878 43.5615H113.359V42.8096H114.878V41.2422H115.757V42.8096H117.769V43.5615H115.757V46.1006C115.757 46.667 115.846 47.0316 116.025 47.1943C116.208 47.3571 116.535 47.4385 117.007 47.4385C117.101 47.4385 117.21 47.4336 117.334 47.4238C117.461 47.4141 117.606 47.3994 117.769 47.3799V48.1367C117.515 48.1562 117.305 48.1693 117.139 48.1758C116.976 48.1855 116.839 48.1904 116.729 48.1904C116.038 48.1904 115.557 48.0586 115.283 47.7949C115.013 47.528 114.878 47.0137 114.878 46.252V43.5615ZM122.812 46.1201V45.2705C122.591 45.3942 122.22 45.4919 121.699 45.5635C121.514 45.5895 121.37 45.6123 121.27 45.6318C120.964 45.6904 120.747 45.7865 120.62 45.9199C120.496 46.0534 120.435 46.2503 120.435 46.5107C120.435 46.8005 120.508 47.0202 120.654 47.1699C120.801 47.3164 121.017 47.3896 121.304 47.3896C121.74 47.3896 122.1 47.2708 122.383 47.0332C122.669 46.7956 122.812 46.4912 122.812 46.1201ZM122.915 47.3018C122.661 47.5882 122.388 47.8031 122.095 47.9463C121.802 48.0895 121.488 48.1611 121.152 48.1611C120.651 48.1611 120.259 48.0228 119.976 47.7461C119.696 47.4661 119.556 47.0804 119.556 46.5889C119.556 46.0452 119.701 45.6416 119.99 45.3779C120.28 45.111 120.781 44.9352 121.494 44.8506C121.582 44.8408 121.706 44.8262 121.865 44.8066C122.516 44.735 122.842 44.4795 122.842 44.04C122.842 43.7601 122.751 43.5534 122.568 43.4199C122.386 43.2865 122.104 43.2197 121.724 43.2197C121.34 43.2197 121.05 43.3011 120.854 43.4639C120.662 43.6266 120.566 43.8691 120.566 44.1914H119.775V44.1279C119.775 43.6038 119.951 43.1921 120.303 42.8926C120.654 42.5898 121.138 42.4385 121.753 42.4385C122.414 42.4385 122.902 42.5703 123.218 42.834C123.537 43.0977 123.696 43.5062 123.696 44.0596V46.8379C123.696 47.056 123.721 47.1992 123.77 47.2676C123.818 47.3359 123.903 47.3701 124.023 47.3701C124.043 47.3701 124.069 47.3685 124.102 47.3652C124.137 47.3587 124.181 47.3506 124.233 47.3408V48.0195C124.136 48.0488 124.048 48.0684 123.97 48.0781C123.895 48.0911 123.82 48.0977 123.745 48.0977C123.468 48.0977 123.26 48.0342 123.12 47.9072C122.983 47.777 122.915 47.585 122.915 47.3311V47.3018ZM132.544 44.8311H135.156C135.156 44.3167 135.044 43.918 134.819 43.6348C134.595 43.3516 134.281 43.21 133.877 43.21C133.477 43.21 133.161 43.3516 132.93 43.6348C132.699 43.9147 132.57 44.3135 132.544 44.8311ZM132.544 45.5684V45.5977C132.544 46.1543 132.668 46.5938 132.915 46.916C133.162 47.2383 133.499 47.3994 133.926 47.3994C134.219 47.3994 134.468 47.318 134.673 47.1553C134.881 46.9893 135.024 46.7581 135.103 46.4619H135.977C135.876 46.9893 135.63 47.4092 135.239 47.7217C134.849 48.0342 134.373 48.1904 133.813 48.1904C133.143 48.1904 132.611 47.9333 132.217 47.4189C131.823 46.9046 131.626 46.2015 131.626 45.3096C131.626 44.4307 131.826 43.7324 132.227 43.2148C132.63 42.6973 133.169 42.4385 133.843 42.4385C134.546 42.4385 135.093 42.6777 135.483 43.1562C135.877 43.6348 136.074 44.3021 136.074 45.1582C136.074 45.2721 136.073 45.3584 136.069 45.417C136.069 45.4723 136.068 45.5228 136.064 45.5684H132.544ZM137.803 48V42.6289H138.643V43.4492C138.818 43.1139 139.038 42.8617 139.302 42.6924C139.569 42.5231 139.881 42.4385 140.239 42.4385C140.597 42.4385 140.903 42.5003 141.157 42.624C141.414 42.7477 141.611 42.93 141.748 43.1709C141.829 43.3044 141.886 43.4606 141.919 43.6396C141.955 43.8154 141.973 44.0921 141.973 44.4697V44.7383V48H141.089V44.6504C141.089 44.123 141.014 43.7552 140.864 43.5469C140.715 43.3353 140.464 43.2295 140.112 43.2295C139.66 43.2295 139.308 43.376 139.058 43.6689C138.807 43.9619 138.682 44.3721 138.682 44.8994V48H137.803ZM148.008 47.7607C148.008 48.5778 147.83 49.167 147.476 49.5283C147.124 49.8896 146.554 50.0703 145.767 50.0703C145.125 50.0703 144.624 49.9336 144.263 49.6602C143.905 49.39 143.726 49.014 143.726 48.5322V48.4883H144.575C144.575 48.765 144.678 48.9701 144.883 49.1035C145.088 49.2402 145.399 49.3086 145.815 49.3086C146.291 49.3086 146.634 49.2012 146.846 48.9863C147.061 48.7747 147.168 48.4264 147.168 47.9414V47.1797C146.891 47.5703 146.637 47.8372 146.406 47.9805C146.178 48.1204 145.905 48.1904 145.586 48.1904C144.954 48.1904 144.448 47.9316 144.067 47.4141C143.687 46.8932 143.496 46.1917 143.496 45.3096C143.496 44.4307 143.685 43.7324 144.062 43.2148C144.443 42.6973 144.951 42.4385 145.586 42.4385C145.915 42.4385 146.209 42.5264 146.47 42.7021C146.73 42.8747 146.963 43.14 147.168 43.498V42.6289H148.008V47.7607ZM144.404 45.3096C144.404 45.9639 144.523 46.4766 144.761 46.8477C144.998 47.2155 145.327 47.3994 145.747 47.3994C146.196 47.3994 146.541 47.2204 146.782 46.8623C147.023 46.501 147.144 45.9834 147.144 45.3096C147.144 44.639 147.023 44.1247 146.782 43.7666C146.541 43.4085 146.196 43.2295 145.747 43.2295C145.327 43.2295 144.998 43.4118 144.761 43.7764C144.523 44.141 144.404 44.652 144.404 45.3096ZM152.573 40.8223V41.8184H151.641V40.8223H152.573ZM152.539 47.2578H154.36V48H149.863V47.2578H151.66V43.5615H150.283V42.8096H152.539V47.2578ZM155.879 48V42.6289H156.719V43.4492C156.895 43.1139 157.114 42.8617 157.378 42.6924C157.645 42.5231 157.957 42.4385 158.315 42.4385C158.674 42.4385 158.979 42.5003 159.233 42.624C159.491 42.7477 159.688 42.93 159.824 43.1709C159.906 43.3044 159.963 43.4606 159.995 43.6396C160.031 43.8154 160.049 44.0921 160.049 44.4697V44.7383V48H159.165V44.6504C159.165 44.123 159.09 43.7552 158.94 43.5469C158.791 43.3353 158.54 43.2295 158.188 43.2295C157.736 43.2295 157.384 43.376 157.134 43.6689C156.883 43.9619 156.758 44.3721 156.758 44.8994V48H155.879ZM162.671 44.8311H165.283C165.283 44.3167 165.171 43.918 164.946 43.6348C164.722 43.3516 164.408 43.21 164.004 43.21C163.604 43.21 163.288 43.3516 163.057 43.6348C162.826 43.9147 162.697 44.3135 162.671 44.8311ZM162.671 45.5684V45.5977C162.671 46.1543 162.795 46.5938 163.042 46.916C163.289 47.2383 163.626 47.3994 164.053 47.3994C164.346 47.3994 164.595 47.318 164.8 47.1553C165.008 46.9893 165.151 46.7581 165.229 46.4619H166.104C166.003 46.9893 165.757 47.4092 165.366 47.7217C164.976 48.0342 164.5 48.1904 163.94 48.1904C163.27 48.1904 162.738 47.9333 162.344 47.4189C161.95 46.9046 161.753 46.2015 161.753 45.3096C161.753 44.4307 161.953 43.7324 162.354 43.2148C162.757 42.6973 163.296 42.4385 163.97 42.4385C164.673 42.4385 165.22 42.6777 165.61 43.1562C166.004 43.6348 166.201 44.3021 166.201 45.1582C166.201 45.2721 166.2 45.3584 166.196 45.417C166.196 45.4723 166.195 45.5228 166.191 45.5684H162.671ZM168.696 44.8311H171.309C171.309 44.3167 171.196 43.918 170.972 43.6348C170.747 43.3516 170.433 43.21 170.029 43.21C169.629 43.21 169.313 43.3516 169.082 43.6348C168.851 43.9147 168.722 44.3135 168.696 44.8311ZM168.696 45.5684V45.5977C168.696 46.1543 168.82 46.5938 169.067 46.916C169.315 47.2383 169.652 47.3994 170.078 47.3994C170.371 47.3994 170.62 47.318 170.825 47.1553C171.034 46.9893 171.177 46.7581 171.255 46.4619H172.129C172.028 46.9893 171.782 47.4092 171.392 47.7217C171.001 48.0342 170.526 48.1904 169.966 48.1904C169.295 48.1904 168.763 47.9333 168.369 47.4189C167.975 46.9046 167.778 46.2015 167.778 45.3096C167.778 44.4307 167.979 43.7324 168.379 43.2148C168.783 42.6973 169.321 42.4385 169.995 42.4385C170.698 42.4385 171.245 42.6777 171.636 43.1562C172.03 43.6348 172.227 44.3021 172.227 45.1582C172.227 45.2721 172.225 45.3584 172.222 45.417C172.222 45.4723 172.22 45.5228 172.217 45.5684H168.696ZM174.282 48V42.6289H175.083V43.5176C175.269 43.1693 175.501 42.9023 175.781 42.7168C176.064 42.5312 176.382 42.4385 176.733 42.4385C177.313 42.4385 177.746 42.5931 178.032 42.9023C178.322 43.2083 178.472 43.6738 178.481 44.2988H177.593C177.593 43.9505 177.503 43.6852 177.324 43.5029C177.148 43.3206 176.891 43.2295 176.553 43.2295C176.104 43.2295 175.758 43.376 175.518 43.6689C175.28 43.9587 175.161 44.3786 175.161 44.9287V48H174.282ZM189.863 46.4521L191.064 48H189.922L189.346 47.2285C189.076 47.5573 188.787 47.7965 188.481 47.9463C188.179 48.096 187.826 48.1709 187.422 48.1709C186.875 48.1709 186.423 47.9821 186.064 47.6045C185.71 47.2236 185.532 46.7451 185.532 46.1689C185.532 45.7327 185.641 45.3535 185.859 45.0312C186.077 44.709 186.442 44.3916 186.953 44.0791C186.732 43.7861 186.564 43.5029 186.45 43.2295C186.34 42.9561 186.284 42.6924 186.284 42.4385C186.284 41.9925 186.429 41.6214 186.719 41.3252C187.012 41.029 187.383 40.8809 187.832 40.8809C188.239 40.8809 188.579 41.0257 188.853 41.3154C189.126 41.6051 189.263 41.9697 189.263 42.4092C189.263 42.7542 189.17 43.0749 188.984 43.3711C188.802 43.6673 188.525 43.944 188.154 44.2012L189.282 45.6514C189.341 45.5179 189.383 45.373 189.409 45.2168C189.438 45.0573 189.456 44.862 189.463 44.6309H190.352C190.339 44.9661 190.291 45.2819 190.21 45.5781C190.132 45.8743 190.016 46.1657 189.863 46.4521ZM187.661 43.6006C187.925 43.4476 188.127 43.2702 188.267 43.0684C188.41 42.8665 188.481 42.6566 188.481 42.4385C188.481 42.2139 188.42 42.0267 188.296 41.877C188.172 41.7272 188.018 41.6523 187.832 41.6523C187.63 41.6523 187.459 41.7288 187.319 41.8818C187.183 42.0348 187.114 42.2204 187.114 42.4385C187.114 42.6208 187.157 42.8047 187.241 42.9902C187.329 43.1725 187.469 43.376 187.661 43.6006ZM187.412 44.6211C187.057 44.8392 186.799 45.0605 186.636 45.2852C186.473 45.5065 186.392 45.7507 186.392 46.0176C186.392 46.3854 186.502 46.6865 186.724 46.9209C186.945 47.152 187.231 47.2676 187.583 47.2676C187.84 47.2676 188.083 47.2057 188.311 47.082C188.538 46.9551 188.726 46.7777 188.872 46.5498L187.412 44.6211ZM198.076 48V41.0615H202.593V41.9014H199.004V43.9814H201.924V44.8115H199.004V48H198.076ZM204.409 48V42.6289H205.21V43.5176C205.396 43.1693 205.628 42.9023 205.908 42.7168C206.191 42.5312 206.509 42.4385 206.86 42.4385C207.44 42.4385 207.873 42.5931 208.159 42.9023C208.449 43.2083 208.599 43.6738 208.608 44.2988H207.72C207.72 43.9505 207.63 43.6852 207.451 43.5029C207.275 43.3206 207.018 43.2295 206.68 43.2295C206.23 43.2295 205.885 43.376 205.645 43.6689C205.407 43.9587 205.288 44.3786 205.288 44.9287V48H204.409ZM210.747 45.3096C210.747 45.9834 210.871 46.5026 211.118 46.8672C211.366 47.2285 211.717 47.4092 212.173 47.4092C212.632 47.4092 212.985 47.2285 213.232 46.8672C213.48 46.5026 213.604 45.9834 213.604 45.3096C213.604 44.6357 213.48 44.1198 213.232 43.7617C212.988 43.4004 212.635 43.2197 212.173 43.2197C211.714 43.2197 211.361 43.4004 211.113 43.7617C210.869 44.1198 210.747 44.6357 210.747 45.3096ZM209.844 45.3193C209.844 44.4144 210.049 43.708 210.459 43.2002C210.872 42.6924 211.444 42.4385 212.173 42.4385C212.909 42.4385 213.481 42.6924 213.892 43.2002C214.302 43.7048 214.507 44.4111 214.507 45.3193C214.507 46.2243 214.302 46.929 213.892 47.4336C213.481 47.9382 212.909 48.1904 212.173 48.1904C211.444 48.1904 210.872 47.9382 210.459 47.4336C210.049 46.9258 209.844 46.221 209.844 45.3193ZM216.133 48V42.6289H216.973V43.4492C217.148 43.1139 217.368 42.8617 217.632 42.6924C217.899 42.5231 218.211 42.4385 218.569 42.4385C218.927 42.4385 219.233 42.5003 219.487 42.624C219.744 42.7477 219.941 42.93 220.078 43.1709C220.16 43.3044 220.216 43.4606 220.249 43.6396C220.285 43.8154 220.303 44.0921 220.303 44.4697V44.7383V48H219.419V44.6504C219.419 44.123 219.344 43.7552 219.194 43.5469C219.045 43.3353 218.794 43.2295 218.442 43.2295C217.99 43.2295 217.638 43.376 217.388 43.6689C217.137 43.9619 217.012 44.3721 217.012 44.8994V48H216.133ZM223.335 43.5615H221.816V42.8096H223.335V41.2422H224.214V42.8096H226.226V43.5615H224.214V46.1006C224.214 46.667 224.303 47.0316 224.482 47.1943C224.665 47.3571 224.992 47.4385 225.464 47.4385C225.558 47.4385 225.667 47.4336 225.791 47.4238C225.918 47.4141 226.063 47.3994 226.226 47.3799V48.1367C225.972 48.1562 225.762 48.1693 225.596 48.1758C225.433 48.1855 225.296 48.1904 225.186 48.1904C224.495 48.1904 224.014 48.0586 223.74 47.7949C223.47 47.528 223.335 47.0137 223.335 46.252V43.5615ZM228.95 44.8311H231.562C231.562 44.3167 231.45 43.918 231.226 43.6348C231.001 43.3516 230.687 43.21 230.283 43.21C229.883 43.21 229.567 43.3516 229.336 43.6348C229.105 43.9147 228.976 44.3135 228.95 44.8311ZM228.95 45.5684V45.5977C228.95 46.1543 229.074 46.5938 229.321 46.916C229.569 47.2383 229.906 47.3994 230.332 47.3994C230.625 47.3994 230.874 47.318 231.079 47.1553C231.287 46.9893 231.431 46.7581 231.509 46.4619H232.383C232.282 46.9893 232.036 47.4092 231.646 47.7217C231.255 48.0342 230.78 48.1904 230.22 48.1904C229.549 48.1904 229.017 47.9333 228.623 47.4189C228.229 46.9046 228.032 46.2015 228.032 45.3096C228.032 44.4307 228.232 43.7324 228.633 43.2148C229.036 42.6973 229.575 42.4385 230.249 42.4385C230.952 42.4385 231.499 42.6777 231.89 43.1562C232.284 43.6348 232.48 44.3021 232.48 45.1582C232.48 45.2721 232.479 45.3584 232.476 45.417C232.476 45.4723 232.474 45.5228 232.471 45.5684H228.95ZM234.209 48V42.6289H235.049V43.4492C235.225 43.1139 235.444 42.8617 235.708 42.6924C235.975 42.5231 236.287 42.4385 236.646 42.4385C237.004 42.4385 237.31 42.5003 237.563 42.624C237.821 42.7477 238.018 42.93 238.154 43.1709C238.236 43.3044 238.293 43.4606 238.325 43.6396C238.361 43.8154 238.379 44.0921 238.379 44.4697V44.7383V48H237.495V44.6504C237.495 44.123 237.42 43.7552 237.271 43.5469C237.121 43.3353 236.87 43.2295 236.519 43.2295C236.066 43.2295 235.715 43.376 235.464 43.6689C235.213 43.9619 235.088 44.3721 235.088 44.8994V48H234.209ZM242.144 43.2295C241.727 43.2295 241.398 43.4134 241.157 43.7812C240.92 44.1491 240.801 44.6585 240.801 45.3096C240.801 45.9639 240.92 46.4766 241.157 46.8477C241.398 47.2155 241.727 47.3994 242.144 47.3994C242.59 47.3994 242.93 47.2204 243.164 46.8623C243.402 46.5042 243.521 45.9867 243.521 45.3096C243.521 44.6357 243.402 44.1214 243.164 43.7666C242.93 43.4085 242.59 43.2295 242.144 43.2295ZM243.53 47.1699C243.358 47.5085 243.141 47.764 242.881 47.9365C242.624 48.1058 242.327 48.1904 241.992 48.1904C241.357 48.1904 240.85 47.9316 240.469 47.4141C240.091 46.8932 239.902 46.1917 239.902 45.3096C239.902 44.4307 240.091 43.7324 240.469 43.2148C240.85 42.6973 241.357 42.4385 241.992 42.4385C242.324 42.4385 242.617 42.5215 242.871 42.6875C243.128 42.8535 243.351 43.1074 243.54 43.4492V40.8223H244.414V48H243.53V47.1699ZM254.194 43.2295C253.778 43.2295 253.449 43.4134 253.208 43.7812C252.97 44.1491 252.852 44.6585 252.852 45.3096C252.852 45.9639 252.97 46.4766 253.208 46.8477C253.449 47.2155 253.778 47.3994 254.194 47.3994C254.64 47.3994 254.98 47.2204 255.215 46.8623C255.452 46.5042 255.571 45.9867 255.571 45.3096C255.571 44.6357 255.452 44.1214 255.215 43.7666C254.98 43.4085 254.64 43.2295 254.194 43.2295ZM255.581 47.1699C255.409 47.5085 255.192 47.764 254.932 47.9365C254.674 48.1058 254.378 48.1904 254.043 48.1904C253.408 48.1904 252.9 47.9316 252.52 47.4141C252.142 46.8932 251.953 46.1917 251.953 45.3096C251.953 44.4307 252.142 43.7324 252.52 43.2148C252.9 42.6973 253.408 42.4385 254.043 42.4385C254.375 42.4385 254.668 42.5215 254.922 42.6875C255.179 42.8535 255.402 43.1074 255.591 43.4492V40.8223H256.465V48H255.581V47.1699ZM259.077 44.8311H261.689C261.689 44.3167 261.577 43.918 261.353 43.6348C261.128 43.3516 260.814 43.21 260.41 43.21C260.01 43.21 259.694 43.3516 259.463 43.6348C259.232 43.9147 259.103 44.3135 259.077 44.8311ZM259.077 45.5684V45.5977C259.077 46.1543 259.201 46.5938 259.448 46.916C259.696 47.2383 260.033 47.3994 260.459 47.3994C260.752 47.3994 261.001 47.318 261.206 47.1553C261.414 46.9893 261.558 46.7581 261.636 46.4619H262.51C262.409 46.9893 262.163 47.4092 261.772 47.7217C261.382 48.0342 260.907 48.1904 260.347 48.1904C259.676 48.1904 259.144 47.9333 258.75 47.4189C258.356 46.9046 258.159 46.2015 258.159 45.3096C258.159 44.4307 258.359 43.7324 258.76 43.2148C259.163 42.6973 259.702 42.4385 260.376 42.4385C261.079 42.4385 261.626 42.6777 262.017 43.1562C262.41 43.6348 262.607 44.3021 262.607 45.1582C262.607 45.2721 262.606 45.3584 262.603 45.417C262.603 45.4723 262.601 45.5228 262.598 45.5684H259.077ZM265.942 48L263.955 42.6289H264.873L266.411 46.96L267.925 42.6289H268.833L266.875 48H265.942ZM271.128 44.8311H273.74C273.74 44.3167 273.628 43.918 273.403 43.6348C273.179 43.3516 272.865 43.21 272.461 43.21C272.061 43.21 271.745 43.3516 271.514 43.6348C271.283 43.9147 271.154 44.3135 271.128 44.8311ZM271.128 45.5684V45.5977C271.128 46.1543 271.252 46.5938 271.499 46.916C271.746 47.2383 272.083 47.3994 272.51 47.3994C272.803 47.3994 273.052 47.318 273.257 47.1553C273.465 46.9893 273.608 46.7581 273.687 46.4619H274.561C274.46 46.9893 274.214 47.4092 273.823 47.7217C273.433 48.0342 272.957 48.1904 272.397 48.1904C271.727 48.1904 271.195 47.9333 270.801 47.4189C270.407 46.9046 270.21 46.2015 270.21 45.3096C270.21 44.4307 270.41 43.7324 270.811 43.2148C271.214 42.6973 271.753 42.4385 272.427 42.4385C273.13 42.4385 273.677 42.6777 274.067 43.1562C274.461 43.6348 274.658 44.3021 274.658 45.1582C274.658 45.2721 274.657 45.3584 274.653 45.417C274.653 45.4723 274.652 45.5228 274.648 45.5684H271.128ZM278.135 41.5596H276.753V40.8223H279.014V47.2578H280.815V48H276.323V47.2578H278.135V41.5596ZM283.052 45.3096C283.052 45.9834 283.175 46.5026 283.423 46.8672C283.67 47.2285 284.022 47.4092 284.478 47.4092C284.937 47.4092 285.29 47.2285 285.537 46.8672C285.785 46.5026 285.908 45.9834 285.908 45.3096C285.908 44.6357 285.785 44.1198 285.537 43.7617C285.293 43.4004 284.94 43.2197 284.478 43.2197C284.019 43.2197 283.665 43.4004 283.418 43.7617C283.174 44.1198 283.052 44.6357 283.052 45.3096ZM282.148 45.3193C282.148 44.4144 282.354 43.708 282.764 43.2002C283.177 42.6924 283.748 42.4385 284.478 42.4385C285.213 42.4385 285.786 42.6924 286.196 43.2002C286.606 43.7048 286.812 44.4111 286.812 45.3193C286.812 46.2243 286.606 46.929 286.196 47.4336C285.786 47.9382 285.213 48.1904 284.478 48.1904C283.748 48.1904 283.177 47.9382 282.764 47.4336C282.354 46.9258 282.148 46.221 282.148 45.3193ZM289.263 43.459C289.461 43.1009 289.683 42.8421 289.927 42.6826C290.171 42.5199 290.464 42.4385 290.806 42.4385C291.44 42.4385 291.947 42.6973 292.324 43.2148C292.705 43.7324 292.896 44.4307 292.896 45.3096C292.896 46.1917 292.705 46.8932 292.324 47.4141C291.943 47.9316 291.437 48.1904 290.806 48.1904C290.461 48.1904 290.169 48.1123 289.932 47.9561C289.694 47.7998 289.471 47.541 289.263 47.1797V50.0801H288.384V42.6289H289.263V43.459ZM290.654 47.3994C291.071 47.3994 291.398 47.2155 291.636 46.8477C291.877 46.4766 291.997 45.9639 291.997 45.3096C291.997 44.6585 291.877 44.1491 291.636 43.7812C291.398 43.4134 291.071 43.2295 290.654 43.2295C290.208 43.2295 289.867 43.4085 289.629 43.7666C289.395 44.1214 289.277 44.6357 289.277 45.3096C289.277 45.9867 289.395 46.5042 289.629 46.8623C289.867 47.2204 290.208 47.3994 290.654 47.3994ZM295.229 44.8311H297.842C297.842 44.3167 297.729 43.918 297.505 43.6348C297.28 43.3516 296.966 43.21 296.562 43.21C296.162 43.21 295.846 43.3516 295.615 43.6348C295.384 43.9147 295.256 44.3135 295.229 44.8311ZM295.229 45.5684V45.5977C295.229 46.1543 295.353 46.5938 295.601 46.916C295.848 47.2383 296.185 47.3994 296.611 47.3994C296.904 47.3994 297.153 47.318 297.358 47.1553C297.567 46.9893 297.71 46.7581 297.788 46.4619H298.662C298.561 46.9893 298.315 47.4092 297.925 47.7217C297.534 48.0342 297.059 48.1904 296.499 48.1904C295.828 48.1904 295.296 47.9333 294.902 47.4189C294.508 46.9046 294.312 46.2015 294.312 45.3096C294.312 44.4307 294.512 43.7324 294.912 43.2148C295.316 42.6973 295.854 42.4385 296.528 42.4385C297.231 42.4385 297.778 42.6777 298.169 43.1562C298.563 43.6348 298.76 44.3021 298.76 45.1582C298.76 45.2721 298.758 45.3584 298.755 45.417C298.755 45.4723 298.753 45.5228 298.75 45.5684H295.229ZM300.815 48V42.6289H301.616V43.5176C301.802 43.1693 302.035 42.9023 302.314 42.7168C302.598 42.5312 302.915 42.4385 303.267 42.4385C303.846 42.4385 304.279 42.5931 304.565 42.9023C304.855 43.2083 305.005 43.6738 305.015 44.2988H304.126C304.126 43.9505 304.036 43.6852 303.857 43.5029C303.682 43.3206 303.424 43.2295 303.086 43.2295C302.637 43.2295 302.292 43.376 302.051 43.6689C301.813 43.9587 301.694 44.3786 301.694 44.9287V48H300.815Z" fill="white"/>
<path d="M100.234 113V100.511H108.364V102.022H101.904V105.767H107.16V107.261H101.904V113H100.234ZM112.425 107.296H117.127C117.127 106.37 116.925 105.652 116.521 105.143C116.116 104.633 115.551 104.378 114.824 104.378C114.104 104.378 113.535 104.633 113.119 105.143C112.703 105.646 112.472 106.364 112.425 107.296ZM112.425 108.623V108.676C112.425 109.678 112.647 110.469 113.093 111.049C113.538 111.629 114.145 111.919 114.912 111.919C115.439 111.919 115.888 111.772 116.257 111.479C116.632 111.181 116.89 110.765 117.03 110.231H118.604C118.422 111.181 117.979 111.937 117.276 112.499C116.573 113.062 115.718 113.343 114.71 113.343C113.503 113.343 112.545 112.88 111.836 111.954C111.127 111.028 110.772 109.763 110.772 108.157C110.772 106.575 111.133 105.318 111.854 104.387C112.58 103.455 113.55 102.989 114.763 102.989C116.028 102.989 117.013 103.42 117.716 104.281C118.425 105.143 118.779 106.344 118.779 107.885C118.779 108.09 118.776 108.245 118.771 108.351C118.771 108.45 118.768 108.541 118.762 108.623H112.425ZM122.479 113V103.332H123.921V104.932C124.255 104.305 124.674 103.824 125.178 103.49C125.688 103.156 126.259 102.989 126.892 102.989C127.935 102.989 128.714 103.268 129.229 103.824C129.751 104.375 130.021 105.213 130.038 106.338H128.438C128.438 105.711 128.277 105.233 127.955 104.905C127.639 104.577 127.176 104.413 126.566 104.413C125.758 104.413 125.137 104.677 124.703 105.204C124.275 105.726 124.062 106.481 124.062 107.472V113H122.479ZM132.736 113V103.332H134.248V104.809C134.564 104.205 134.96 103.751 135.435 103.446C135.915 103.142 136.478 102.989 137.122 102.989C137.767 102.989 138.317 103.101 138.774 103.323C139.237 103.546 139.592 103.874 139.838 104.308C139.984 104.548 140.087 104.829 140.146 105.151C140.21 105.468 140.242 105.966 140.242 106.646V107.129V113H138.651V106.971C138.651 106.021 138.517 105.359 138.247 104.984C137.978 104.604 137.526 104.413 136.894 104.413C136.079 104.413 135.446 104.677 134.995 105.204C134.544 105.731 134.318 106.47 134.318 107.419V113H132.736ZM154.05 113V100.511H156.01L160.738 110.75V100.511H162.25V113H160.325L155.535 102.761V113H154.05ZM170.169 100.08V101.873H168.49V100.08H170.169ZM170.107 111.664H173.386V113H165.291V111.664H168.525V105.011H166.047V103.657H170.107V111.664ZM182.271 106.54C182.236 105.849 182.017 105.315 181.612 104.94C181.214 104.565 180.666 104.378 179.969 104.378C179.16 104.378 178.533 104.706 178.088 105.362C177.648 106.013 177.429 106.938 177.429 108.14C177.429 109.37 177.646 110.308 178.079 110.952C178.513 111.597 179.143 111.919 179.969 111.919C180.619 111.919 181.158 111.708 181.586 111.286C182.014 110.858 182.266 110.278 182.342 109.546H183.854C183.783 110.706 183.391 111.629 182.676 112.314C181.967 113 181.047 113.343 179.916 113.343C178.621 113.343 177.613 112.889 176.893 111.98C176.172 111.072 175.812 109.81 175.812 108.192C175.812 106.575 176.181 105.304 176.919 104.378C177.657 103.452 178.674 102.989 179.969 102.989C181.111 102.989 182.031 103.312 182.729 103.956C183.432 104.595 183.801 105.456 183.836 106.54H182.271ZM186.965 113V100.08H188.547V104.738C188.828 104.17 189.209 103.736 189.689 103.438C190.17 103.139 190.724 102.989 191.351 102.989C191.995 102.989 192.546 103.101 193.003 103.323C193.466 103.546 193.82 103.874 194.066 104.308C194.213 104.548 194.315 104.829 194.374 105.151C194.438 105.468 194.471 105.966 194.471 106.646V107.129V113H192.88V106.971C192.88 106.021 192.745 105.359 192.476 104.984C192.206 104.604 191.755 104.413 191.122 104.413C190.308 104.413 189.675 104.677 189.224 105.204C188.772 105.731 188.547 106.47 188.547 107.419V113H186.965ZM203.365 109.616V108.087C202.967 108.31 202.299 108.485 201.361 108.614C201.027 108.661 200.77 108.702 200.588 108.737C200.037 108.843 199.647 109.016 199.419 109.256C199.196 109.496 199.085 109.851 199.085 110.319C199.085 110.841 199.217 111.236 199.48 111.506C199.744 111.77 200.134 111.901 200.649 111.901C201.435 111.901 202.082 111.688 202.592 111.26C203.107 110.832 203.365 110.284 203.365 109.616ZM203.55 111.743C203.093 112.259 202.601 112.646 202.073 112.903C201.546 113.161 200.98 113.29 200.377 113.29C199.475 113.29 198.769 113.041 198.259 112.543C197.755 112.039 197.503 111.345 197.503 110.46C197.503 109.481 197.764 108.755 198.285 108.28C198.807 107.8 199.709 107.483 200.992 107.331C201.15 107.313 201.373 107.287 201.66 107.252C202.832 107.123 203.418 106.663 203.418 105.872C203.418 105.368 203.254 104.996 202.926 104.756C202.598 104.516 202.091 104.396 201.405 104.396C200.714 104.396 200.192 104.542 199.841 104.835C199.495 105.128 199.322 105.564 199.322 106.145H197.898V106.03C197.898 105.087 198.215 104.346 198.848 103.807C199.48 103.262 200.351 102.989 201.458 102.989C202.647 102.989 203.526 103.227 204.095 103.701C204.669 104.176 204.956 104.911 204.956 105.907V110.908C204.956 111.301 205 111.559 205.088 111.682C205.176 111.805 205.328 111.866 205.545 111.866C205.58 111.866 205.627 111.863 205.686 111.857C205.75 111.846 205.829 111.831 205.923 111.813V113.035C205.747 113.088 205.589 113.123 205.448 113.141C205.313 113.164 205.179 113.176 205.044 113.176C204.546 113.176 204.171 113.062 203.919 112.833C203.673 112.599 203.55 112.253 203.55 111.796V111.743ZM208.656 113V103.332H210.168V104.809C210.484 104.205 210.88 103.751 211.354 103.446C211.835 103.142 212.397 102.989 213.042 102.989C213.687 102.989 214.237 103.101 214.694 103.323C215.157 103.546 215.512 103.874 215.758 104.308C215.904 104.548 216.007 104.829 216.065 105.151C216.13 105.468 216.162 105.966 216.162 106.646V107.129V113H214.571V106.971C214.571 106.021 214.437 105.359 214.167 104.984C213.897 104.604 213.446 104.413 212.813 104.413C211.999 104.413 211.366 104.677 210.915 105.204C210.464 105.731 210.238 106.47 210.238 107.419V113H208.656ZM226.946 103.332V113H225.435V111.523C225.118 112.133 224.72 112.59 224.239 112.895C223.765 113.193 223.205 113.343 222.561 113.343C221.916 113.343 221.362 113.231 220.899 113.009C220.442 112.786 220.088 112.458 219.836 112.024C219.695 111.784 219.593 111.506 219.528 111.189C219.47 110.867 219.44 110.366 219.44 109.687V109.203V103.332H221.031V109.546C221.031 110.384 221.169 110.987 221.444 111.356C221.72 111.72 222.168 111.901 222.789 111.901C223.604 111.901 224.236 111.641 224.688 111.119C225.139 110.598 225.364 109.862 225.364 108.913V103.332H226.946ZM230.348 113V103.332H231.859V104.809C232.176 104.205 232.571 103.751 233.046 103.446C233.526 103.142 234.089 102.989 234.733 102.989C235.378 102.989 235.929 103.101 236.386 103.323C236.849 103.546 237.203 103.874 237.449 104.308C237.596 104.548 237.698 104.829 237.757 105.151C237.821 105.468 237.854 105.966 237.854 106.646V107.129V113H236.263V106.971C236.263 106.021 236.128 105.359 235.858 104.984C235.589 104.604 235.138 104.413 234.505 104.413C233.69 104.413 233.058 104.677 232.606 105.204C232.155 105.731 231.93 106.47 231.93 107.419V113H230.348Z" fill="#A995AE"/>
<path d="M299.722 87.2656V95.1953C299.722 98.5677 300.326 100.938 301.533 102.305C302.764 103.672 304.871 104.355 307.856 104.355C307.993 104.355 308.232 104.344 308.574 104.321C308.916 104.299 309.189 104.287 309.395 104.287V109.38H308.062C304.985 109.38 302.821 110.063 301.567 111.431C300.337 112.775 299.722 115.156 299.722 118.574V126.401C299.722 131.46 298.867 134.764 297.158 136.313C295.449 137.863 292.1 138.638 287.109 138.638H285.503V133.545H286.836C289.593 133.545 291.45 133.055 292.407 132.075C293.364 131.095 293.843 128.965 293.843 125.684V117.993C293.843 114.256 294.333 111.647 295.312 110.166C296.315 108.662 298.115 107.568 300.713 106.885C298.115 106.178 296.315 105.085 295.312 103.604C294.333 102.1 293.843 99.4792 293.843 95.7422V88.0518C293.843 84.7477 293.364 82.6058 292.407 81.626C291.45 80.6234 289.593 80.1221 286.836 80.1221H285.503V75.0977H287.109C292.122 75.0977 295.472 75.8724 297.158 77.4219C298.867 78.9486 299.722 82.2298 299.722 87.2656Z" fill="white"/>
<path d="M39.2441 87.2656C39.2441 82.207 40.0872 78.9144 41.7734 77.3877C43.4596 75.861 46.7979 75.0977 51.7881 75.0977H53.3945V80.1221H52.1299C49.3727 80.1221 47.5156 80.612 46.5586 81.5918C45.6016 82.5716 45.123 84.7249 45.123 88.0518V95.7422C45.123 99.388 44.6104 101.974 43.585 103.501C42.5824 105.028 40.7822 106.156 38.1846 106.885C40.805 107.591 42.6165 108.708 43.6191 110.234C44.6217 111.738 45.123 114.325 45.123 117.993V125.684C45.123 128.988 45.6016 131.118 46.5586 132.075C47.5384 133.055 49.4639 133.545 52.335 133.545H53.3945V138.638H51.7881C46.7979 138.638 43.4596 137.863 41.7734 136.313C40.0872 134.764 39.2441 131.46 39.2441 126.401V118.574C39.2441 115.179 38.6175 112.798 37.3643 111.431C36.111 110.063 33.9349 109.38 30.8359 109.38H29.5029V104.287H30.8359C33.9349 104.287 36.111 103.615 37.3643 102.271C38.6175 100.903 39.2441 98.5449 39.2441 95.1953V87.2656Z" fill="white"/>
<path d="M75.1147 194.346L72.5376 195.508L75.1147 196.657V197.217L71.8574 195.724V195.283L75.1147 193.792V194.346ZM76.2598 198V192.976H76.875V194.787C76.9844 194.566 77.1325 194.397 77.3193 194.281C77.5062 194.165 77.7215 194.107 77.9653 194.107C78.216 194.107 78.4302 194.15 78.6079 194.237C78.7879 194.323 78.9258 194.451 79.0215 194.62C79.0785 194.713 79.1183 194.822 79.1411 194.948C79.1662 195.071 79.1787 195.264 79.1787 195.529V195.717V198H78.5601V195.655C78.5601 195.286 78.5076 195.029 78.4028 194.883C78.298 194.735 78.1226 194.661 77.8765 194.661C77.5597 194.661 77.3136 194.763 77.1382 194.968C76.9627 195.173 76.875 195.46 76.875 195.83V198H76.2598ZM81.3013 194.893H80.2383V194.367H81.3013V193.27H81.9165V194.367H83.3247V194.893H81.9165V196.67C81.9165 197.067 81.9792 197.322 82.1045 197.436C82.2321 197.55 82.4611 197.607 82.7915 197.607C82.8576 197.607 82.9339 197.604 83.0205 197.597C83.1094 197.59 83.2108 197.58 83.3247 197.566V198.096C83.147 198.109 83 198.118 82.8838 198.123C82.7699 198.13 82.6742 198.133 82.5967 198.133C82.1136 198.133 81.7764 198.041 81.585 197.856C81.3958 197.67 81.3013 197.31 81.3013 196.776V194.893ZM84.4492 198V194.24H84.9961V194.64C85.0645 194.469 85.1567 194.338 85.2729 194.247C85.3892 194.154 85.5202 194.107 85.666 194.107C85.8369 194.107 85.9816 194.155 86.1001 194.25C86.2209 194.344 86.3075 194.478 86.3599 194.654C86.4601 194.467 86.5718 194.329 86.6948 194.24C86.8179 194.151 86.958 194.107 87.1152 194.107C87.3773 194.107 87.5653 194.204 87.6792 194.397C87.7931 194.589 87.8501 194.924 87.8501 195.402V198H87.2827V195.361C87.2827 195.086 87.2554 194.892 87.2007 194.78C87.1483 194.669 87.0594 194.613 86.9341 194.613C86.7746 194.613 86.6481 194.691 86.5547 194.849C86.4613 195.004 86.4146 195.217 86.4146 195.488V198H85.8848V195.361C85.8848 195.09 85.8563 194.898 85.7993 194.784C85.7446 194.67 85.6535 194.613 85.5259 194.613C85.3687 194.613 85.2445 194.69 85.1533 194.845C85.0622 194.998 85.0166 195.212 85.0166 195.488V198H84.4492ZM90.1367 193.492H89.1694V192.976H90.752V197.48H92.0132V198H88.8687V197.48H90.1367V193.492ZM93.4863 198.649L95.1748 193.01H95.6636L93.9683 198.649H93.4863ZM99.7412 195.488C99.7275 195.219 99.6421 195.012 99.4849 194.866C99.3299 194.72 99.1169 194.647 98.8457 194.647C98.5312 194.647 98.2874 194.775 98.1143 195.03C97.9434 195.283 97.8579 195.643 97.8579 196.11C97.8579 196.588 97.9422 196.953 98.1108 197.204C98.2795 197.454 98.5244 197.58 98.8457 197.58C99.0986 197.58 99.3083 197.498 99.4746 197.333C99.641 197.167 99.7389 196.942 99.7686 196.657H100.356C100.329 197.108 100.176 197.467 99.8984 197.733C99.6227 198 99.265 198.133 98.8252 198.133C98.3216 198.133 97.9297 197.957 97.6494 197.604C97.3691 197.25 97.229 196.759 97.229 196.13C97.229 195.501 97.3726 195.007 97.6597 194.647C97.9468 194.287 98.3421 194.107 98.8457 194.107C99.29 194.107 99.6478 194.232 99.9189 194.483C100.192 194.731 100.336 195.066 100.35 195.488H99.7412ZM103.405 195.809C103.84 195.909 104.137 196.04 104.294 196.202C104.453 196.364 104.533 196.594 104.533 196.893C104.533 197.28 104.396 197.584 104.123 197.805C103.852 198.024 103.475 198.133 102.992 198.133C102.527 198.133 102.167 198.022 101.912 197.798C101.659 197.573 101.53 197.25 101.525 196.831H102.117C102.139 197.082 102.228 197.271 102.383 197.398C102.541 197.524 102.763 197.586 103.05 197.586C103.316 197.586 103.527 197.531 103.682 197.419C103.839 197.307 103.918 197.156 103.918 196.964C103.918 196.823 103.878 196.715 103.798 196.64C103.721 196.562 103.569 196.495 103.344 196.438L102.657 196.271C102.265 196.175 101.991 196.046 101.836 195.884C101.684 195.722 101.607 195.495 101.607 195.201C101.607 194.868 101.732 194.603 101.98 194.404C102.228 194.206 102.566 194.107 102.992 194.107C103.427 194.107 103.773 194.209 104.031 194.415C104.291 194.617 104.42 194.889 104.42 195.228V195.242H103.819C103.807 195.053 103.729 194.904 103.583 194.797C103.437 194.688 103.24 194.633 102.992 194.633C102.741 194.633 102.55 194.68 102.417 194.773C102.288 194.867 102.223 195.002 102.223 195.18C102.223 195.308 102.263 195.408 102.342 195.481C102.424 195.552 102.58 195.614 102.811 195.669L103.405 195.809ZM107.623 195.809C108.058 195.909 108.354 196.04 108.512 196.202C108.671 196.364 108.751 196.594 108.751 196.893C108.751 197.28 108.614 197.584 108.341 197.805C108.07 198.024 107.693 198.133 107.209 198.133C106.745 198.133 106.385 198.022 106.129 197.798C105.876 197.573 105.748 197.25 105.743 196.831H106.334C106.357 197.082 106.446 197.271 106.601 197.398C106.758 197.524 106.98 197.586 107.268 197.586C107.534 197.586 107.745 197.531 107.9 197.419C108.057 197.307 108.136 197.156 108.136 196.964C108.136 196.823 108.096 196.715 108.016 196.64C107.939 196.562 107.787 196.495 107.562 196.438L106.875 196.271C106.483 196.175 106.209 196.046 106.054 195.884C105.902 195.722 105.825 195.495 105.825 195.201C105.825 194.868 105.949 194.603 106.198 194.404C106.446 194.206 106.783 194.107 107.209 194.107C107.645 194.107 107.991 194.209 108.249 194.415C108.508 194.617 108.638 194.889 108.638 195.228V195.242H108.037C108.025 195.053 107.947 194.904 107.801 194.797C107.655 194.688 107.458 194.633 107.209 194.633C106.959 194.633 106.767 194.68 106.635 194.773C106.505 194.867 106.44 195.002 106.44 195.18C106.44 195.308 106.48 195.408 106.56 195.481C106.642 195.552 106.798 195.614 107.028 195.669L107.623 195.809ZM110.357 198.649L112.046 193.01H112.535L110.839 198.649H110.357ZM116.212 192.976V193.673H115.597V192.976H116.212ZM114.462 198.875C114.494 198.877 114.542 198.882 114.606 198.889C114.756 198.902 114.865 198.909 114.931 198.909C115.197 198.909 115.375 198.866 115.464 198.779C115.553 198.693 115.597 198.502 115.597 198.208V194.893H114.63V194.367H116.212V198.26C116.212 198.709 116.128 199.021 115.959 199.196C115.793 199.374 115.505 199.463 115.095 199.463C115.017 199.463 114.928 199.459 114.828 199.453C114.728 199.448 114.607 199.44 114.466 199.429L114.462 198.875ZM120.276 195.809C120.712 195.909 121.008 196.04 121.165 196.202C121.325 196.364 121.404 196.594 121.404 196.893C121.404 197.28 121.268 197.584 120.994 197.805C120.723 198.024 120.346 198.133 119.863 198.133C119.398 198.133 119.038 198.022 118.783 197.798C118.53 197.573 118.401 197.25 118.396 196.831H118.988C119.011 197.082 119.099 197.271 119.254 197.398C119.412 197.524 119.634 197.586 119.921 197.586C120.188 197.586 120.398 197.531 120.553 197.419C120.71 197.307 120.789 197.156 120.789 196.964C120.789 196.823 120.749 196.715 120.669 196.64C120.592 196.562 120.44 196.495 120.215 196.438L119.528 196.271C119.136 196.175 118.862 196.046 118.708 195.884C118.555 195.722 118.479 195.495 118.479 195.201C118.479 194.868 118.603 194.603 118.851 194.404C119.099 194.206 119.437 194.107 119.863 194.107C120.298 194.107 120.644 194.209 120.902 194.415C121.162 194.617 121.292 194.889 121.292 195.228V195.242H120.69C120.679 195.053 120.6 194.904 120.454 194.797C120.308 194.688 120.111 194.633 119.863 194.633C119.612 194.633 119.421 194.68 119.289 194.773C119.159 194.867 119.094 195.002 119.094 195.18C119.094 195.308 119.134 195.408 119.213 195.481C119.295 195.552 119.451 195.614 119.682 195.669L120.276 195.809ZM122.471 194.346V193.792L125.728 195.283V195.724L122.471 197.217V196.657L125.055 195.508L122.471 194.346ZM134.164 194.346L131.586 195.508L134.164 196.657V197.217L130.906 195.724V195.283L134.164 193.792V194.346ZM135.886 194.821C136.025 194.571 136.18 194.389 136.351 194.278C136.522 194.164 136.727 194.107 136.966 194.107C137.411 194.107 137.765 194.288 138.029 194.65C138.296 195.013 138.429 195.501 138.429 196.117C138.429 196.734 138.296 197.225 138.029 197.59C137.763 197.952 137.408 198.133 136.966 198.133C136.725 198.133 136.521 198.079 136.354 197.969C136.188 197.86 136.032 197.679 135.886 197.426V199.456H135.271V194.24H135.886V194.821ZM136.86 197.58C137.152 197.58 137.381 197.451 137.547 197.193C137.716 196.934 137.8 196.575 137.8 196.117C137.8 195.661 137.716 195.304 137.547 195.047C137.381 194.789 137.152 194.661 136.86 194.661C136.548 194.661 136.309 194.786 136.143 195.037C135.979 195.285 135.896 195.645 135.896 196.117C135.896 196.591 135.979 196.953 136.143 197.204C136.309 197.454 136.548 197.58 136.86 197.58ZM142.052 194.24H142.708L141.184 198.482C141.043 198.881 140.894 199.143 140.736 199.268C140.579 199.393 140.35 199.456 140.049 199.456C139.913 199.456 139.799 199.451 139.708 199.442C139.616 199.433 139.532 199.42 139.455 199.401V198.807C139.575 198.829 139.681 198.847 139.772 198.858C139.864 198.869 139.947 198.875 140.022 198.875C140.163 198.875 140.276 198.85 140.36 198.8C140.445 198.75 140.507 198.67 140.548 198.561L140.671 198.208L139.246 194.24H139.916L140.972 197.333L142.052 194.24ZM144.568 194.893H143.505V194.367H144.568V193.27H145.183V194.367H146.591V194.893H145.183V196.67C145.183 197.067 145.246 197.322 145.371 197.436C145.499 197.55 145.728 197.607 146.058 197.607C146.124 197.607 146.201 197.604 146.287 197.597C146.376 197.59 146.477 197.58 146.591 197.566V198.096C146.414 198.109 146.267 198.118 146.15 198.123C146.036 198.13 145.941 198.133 145.863 198.133C145.38 198.133 145.043 198.041 144.852 197.856C144.662 197.67 144.568 197.31 144.568 196.776V194.893ZM147.962 198V192.976H148.577V194.787C148.687 194.566 148.835 194.397 149.021 194.281C149.208 194.165 149.424 194.107 149.667 194.107C149.918 194.107 150.132 194.15 150.31 194.237C150.49 194.323 150.628 194.451 150.724 194.62C150.781 194.713 150.82 194.822 150.843 194.948C150.868 195.071 150.881 195.264 150.881 195.529V195.717V198H150.262V195.655C150.262 195.286 150.21 195.029 150.105 194.883C150 194.735 149.825 194.661 149.579 194.661C149.262 194.661 149.016 194.763 148.84 194.968C148.665 195.173 148.577 195.46 148.577 195.83V198H147.962ZM152.627 196.117C152.627 196.588 152.714 196.952 152.887 197.207C153.06 197.46 153.306 197.586 153.625 197.586C153.947 197.586 154.194 197.46 154.367 197.207C154.54 196.952 154.627 196.588 154.627 196.117C154.627 195.645 154.54 195.284 154.367 195.033C154.196 194.78 153.949 194.654 153.625 194.654C153.304 194.654 153.057 194.78 152.884 195.033C152.713 195.284 152.627 195.645 152.627 196.117ZM151.995 196.124C151.995 195.49 152.139 194.996 152.426 194.64C152.715 194.285 153.115 194.107 153.625 194.107C154.14 194.107 154.542 194.285 154.829 194.64C155.116 194.993 155.259 195.488 155.259 196.124C155.259 196.757 155.116 197.25 154.829 197.604C154.542 197.957 154.14 198.133 153.625 198.133C153.115 198.133 152.715 197.957 152.426 197.604C152.139 197.248 151.995 196.755 151.995 196.124ZM156.397 198V194.24H156.985V194.814C157.108 194.58 157.262 194.403 157.447 194.285C157.634 194.166 157.852 194.107 158.103 194.107C158.354 194.107 158.568 194.15 158.746 194.237C158.926 194.323 159.063 194.451 159.159 194.62C159.216 194.713 159.256 194.822 159.279 194.948C159.304 195.071 159.316 195.264 159.316 195.529V195.717V198H158.698V195.655C158.698 195.286 158.645 195.029 158.541 194.883C158.436 194.735 158.26 194.661 158.014 194.661C157.697 194.661 157.451 194.763 157.276 194.968C157.1 195.173 157.013 195.46 157.013 195.83V198H156.397ZM160.431 194.346V193.792L163.688 195.283V195.724L160.431 197.217V196.657L163.015 195.508L160.431 194.346ZM172.124 194.346L169.546 195.508L172.124 196.657V197.217L168.866 195.724V195.283L172.124 193.792V194.346ZM173.498 198V194.24H174.058V194.862C174.188 194.618 174.351 194.432 174.547 194.302C174.745 194.172 174.967 194.107 175.213 194.107C175.619 194.107 175.922 194.215 176.123 194.432C176.325 194.646 176.43 194.972 176.437 195.409H175.815C175.815 195.165 175.752 194.98 175.627 194.852C175.504 194.724 175.324 194.661 175.087 194.661C174.772 194.661 174.531 194.763 174.362 194.968C174.196 195.171 174.113 195.465 174.113 195.85V198H173.498ZM178.023 195.782H179.852C179.852 195.422 179.773 195.143 179.616 194.944C179.458 194.746 179.239 194.647 178.956 194.647C178.676 194.647 178.455 194.746 178.293 194.944C178.131 195.14 178.041 195.419 178.023 195.782ZM178.023 196.298V196.318C178.023 196.708 178.11 197.016 178.283 197.241C178.456 197.467 178.692 197.58 178.99 197.58C179.195 197.58 179.37 197.523 179.513 197.409C179.659 197.292 179.759 197.131 179.814 196.923H180.426C180.355 197.292 180.183 197.586 179.91 197.805C179.636 198.024 179.304 198.133 178.912 198.133C178.442 198.133 178.07 197.953 177.794 197.593C177.518 197.233 177.38 196.741 177.38 196.117C177.38 195.501 177.521 195.013 177.801 194.65C178.083 194.288 178.46 194.107 178.932 194.107C179.424 194.107 179.807 194.274 180.081 194.609C180.356 194.944 180.494 195.411 180.494 196.011C180.494 196.09 180.493 196.151 180.491 196.192C180.491 196.231 180.49 196.266 180.487 196.298H178.023ZM183.864 196.684V196.089C183.709 196.176 183.45 196.244 183.085 196.294C182.955 196.313 182.855 196.329 182.784 196.342C182.57 196.383 182.418 196.451 182.33 196.544C182.243 196.637 182.2 196.775 182.2 196.958C182.2 197.16 182.251 197.314 182.354 197.419C182.456 197.521 182.608 197.573 182.808 197.573C183.113 197.573 183.365 197.49 183.563 197.323C183.764 197.157 183.864 196.944 183.864 196.684ZM183.936 197.511C183.758 197.712 183.567 197.862 183.362 197.962C183.157 198.063 182.937 198.113 182.702 198.113C182.351 198.113 182.077 198.016 181.878 197.822C181.682 197.626 181.584 197.356 181.584 197.012C181.584 196.632 181.686 196.349 181.889 196.165C182.091 195.978 182.442 195.855 182.941 195.795C183.003 195.789 183.09 195.778 183.201 195.765C183.657 195.715 183.885 195.536 183.885 195.228C183.885 195.032 183.821 194.887 183.693 194.794C183.566 194.701 183.369 194.654 183.102 194.654C182.833 194.654 182.63 194.711 182.494 194.825C182.359 194.939 182.292 195.108 182.292 195.334H181.738V195.29C181.738 194.923 181.861 194.634 182.107 194.425C182.354 194.213 182.692 194.107 183.123 194.107C183.585 194.107 183.927 194.199 184.148 194.384C184.371 194.568 184.483 194.854 184.483 195.242V197.187C184.483 197.339 184.5 197.439 184.534 197.487C184.568 197.535 184.628 197.559 184.712 197.559C184.726 197.559 184.744 197.558 184.767 197.556C184.792 197.551 184.822 197.545 184.859 197.539V198.014C184.791 198.034 184.729 198.048 184.674 198.055C184.622 198.064 184.569 198.068 184.517 198.068C184.323 198.068 184.178 198.024 184.08 197.935C183.984 197.844 183.936 197.709 183.936 197.532V197.511ZM188.314 195.488C188.301 195.219 188.215 195.012 188.058 194.866C187.903 194.72 187.69 194.647 187.419 194.647C187.104 194.647 186.861 194.775 186.688 195.03C186.517 195.283 186.431 195.643 186.431 196.11C186.431 196.588 186.515 196.953 186.684 197.204C186.853 197.454 187.098 197.58 187.419 197.58C187.672 197.58 187.882 197.498 188.048 197.333C188.214 197.167 188.312 196.942 188.342 196.657H188.93C188.902 197.108 188.75 197.467 188.472 197.733C188.196 198 187.838 198.133 187.398 198.133C186.895 198.133 186.503 197.957 186.223 197.604C185.942 197.25 185.802 196.759 185.802 196.13C185.802 195.501 185.946 195.007 186.233 194.647C186.52 194.287 186.915 194.107 187.419 194.107C187.863 194.107 188.221 194.232 188.492 194.483C188.766 194.731 188.909 195.066 188.923 195.488H188.314ZM190.963 194.893H189.9V194.367H190.963V193.27H191.579V194.367H192.987V194.893H191.579V196.67C191.579 197.067 191.641 197.322 191.767 197.436C191.894 197.55 192.123 197.607 192.454 197.607C192.52 197.607 192.596 197.604 192.683 197.597C192.771 197.59 192.873 197.58 192.987 197.566V198.096C192.809 198.109 192.662 198.118 192.546 198.123C192.432 198.13 192.336 198.133 192.259 198.133C191.776 198.133 191.438 198.041 191.247 197.856C191.058 197.67 190.963 197.31 190.963 196.776V194.893ZM194.173 194.346V193.792L197.43 195.283V195.724L194.173 197.217V196.657L196.757 195.508L194.173 194.346ZM205.866 194.346L203.289 195.508L205.866 196.657V197.217L202.608 195.724V195.283L205.866 193.792V194.346ZM207.011 198V194.24H207.599V194.814C207.722 194.58 207.875 194.403 208.06 194.285C208.247 194.166 208.466 194.107 208.716 194.107C208.967 194.107 209.181 194.15 209.359 194.237C209.539 194.323 209.677 194.451 209.772 194.62C209.829 194.713 209.869 194.822 209.892 194.948C209.917 195.071 209.93 195.264 209.93 195.529V195.717V198H209.311V195.655C209.311 195.286 209.259 195.029 209.154 194.883C209.049 194.735 208.874 194.661 208.627 194.661C208.311 194.661 208.065 194.763 207.889 194.968C207.714 195.173 207.626 195.46 207.626 195.83V198H207.011ZM211.676 196.117C211.676 196.588 211.763 196.952 211.936 197.207C212.109 197.46 212.355 197.586 212.674 197.586C212.996 197.586 213.243 197.46 213.416 197.207C213.589 196.952 213.676 196.588 213.676 196.117C213.676 195.645 213.589 195.284 213.416 195.033C213.245 194.78 212.998 194.654 212.674 194.654C212.353 194.654 212.106 194.78 211.933 195.033C211.762 195.284 211.676 195.645 211.676 196.117ZM211.044 196.124C211.044 195.49 211.188 194.996 211.475 194.64C211.764 194.285 212.164 194.107 212.674 194.107C213.189 194.107 213.59 194.285 213.877 194.64C214.165 194.993 214.308 195.488 214.308 196.124C214.308 196.757 214.165 197.25 213.877 197.604C213.59 197.957 213.189 198.133 212.674 198.133C212.164 198.133 211.764 197.957 211.475 197.604C211.188 197.248 211.044 196.755 211.044 196.124ZM216.783 194.661C216.491 194.661 216.261 194.789 216.092 195.047C215.926 195.304 215.843 195.661 215.843 196.117C215.843 196.575 215.926 196.934 216.092 197.193C216.261 197.451 216.491 197.58 216.783 197.58C217.095 197.58 217.333 197.454 217.497 197.204C217.663 196.953 217.747 196.591 217.747 196.117C217.747 195.645 217.663 195.285 217.497 195.037C217.333 194.786 217.095 194.661 216.783 194.661ZM217.753 197.419C217.633 197.656 217.481 197.835 217.299 197.956C217.119 198.074 216.911 198.133 216.677 198.133C216.232 198.133 215.877 197.952 215.61 197.59C215.346 197.225 215.214 196.734 215.214 196.117C215.214 195.501 215.346 195.013 215.61 194.65C215.877 194.288 216.232 194.107 216.677 194.107C216.909 194.107 217.114 194.165 217.292 194.281C217.472 194.397 217.628 194.575 217.76 194.814V192.976H218.372V198H217.753V197.419ZM220.201 195.782H222.029C222.029 195.422 221.951 195.143 221.793 194.944C221.636 194.746 221.416 194.647 221.134 194.647C220.854 194.647 220.632 194.746 220.471 194.944C220.309 195.14 220.219 195.419 220.201 195.782ZM220.201 196.298V196.318C220.201 196.708 220.287 197.016 220.46 197.241C220.634 197.467 220.869 197.58 221.168 197.58C221.373 197.58 221.547 197.523 221.691 197.409C221.837 197.292 221.937 197.131 221.992 196.923H222.604C222.533 197.292 222.361 197.586 222.087 197.805C221.814 198.024 221.481 198.133 221.089 198.133C220.62 198.133 220.247 197.953 219.972 197.593C219.696 197.233 219.558 196.741 219.558 196.117C219.558 195.501 219.698 195.013 219.979 194.65C220.261 194.288 220.638 194.107 221.11 194.107C221.602 194.107 221.985 194.274 222.258 194.609C222.534 194.944 222.672 195.411 222.672 196.011C222.672 196.09 222.671 196.151 222.668 196.192C222.668 196.231 222.667 196.266 222.665 196.298H220.201ZM224.846 198V196.958H225.813V198H224.846ZM230.092 192.976V193.673H229.477V192.976H230.092ZM228.342 198.875C228.374 198.877 228.422 198.882 228.486 198.889C228.636 198.902 228.744 198.909 228.811 198.909C229.077 198.909 229.255 198.866 229.344 198.779C229.433 198.693 229.477 198.502 229.477 198.208V194.893H228.51V194.367H230.092V198.26C230.092 198.709 230.008 199.021 229.839 199.196C229.673 199.374 229.385 199.463 228.975 199.463C228.897 199.463 228.808 199.459 228.708 199.453C228.608 199.448 228.487 199.44 228.346 199.429L228.342 198.875ZM234.156 195.809C234.591 195.909 234.888 196.04 235.045 196.202C235.204 196.364 235.284 196.594 235.284 196.893C235.284 197.28 235.147 197.584 234.874 197.805C234.603 198.024 234.226 198.133 233.743 198.133C233.278 198.133 232.918 198.022 232.663 197.798C232.41 197.573 232.281 197.25 232.276 196.831H232.868C232.89 197.082 232.979 197.271 233.134 197.398C233.292 197.524 233.514 197.586 233.801 197.586C234.067 197.586 234.278 197.531 234.433 197.419C234.59 197.307 234.669 197.156 234.669 196.964C234.669 196.823 234.629 196.715 234.549 196.64C234.472 196.562 234.32 196.495 234.095 196.438L233.408 196.271C233.016 196.175 232.742 196.046 232.587 195.884C232.435 195.722 232.358 195.495 232.358 195.201C232.358 194.868 232.483 194.603 232.731 194.404C232.979 194.206 233.317 194.107 233.743 194.107C234.178 194.107 234.524 194.209 234.782 194.415C235.042 194.617 235.171 194.889 235.171 195.228V195.242H234.57C234.558 195.053 234.48 194.904 234.334 194.797C234.188 194.688 233.991 194.633 233.743 194.633C233.492 194.633 233.301 194.68 233.168 194.773C233.039 194.867 232.974 195.002 232.974 195.18C232.974 195.308 233.014 195.408 233.093 195.481C233.175 195.552 233.331 195.614 233.562 195.669L234.156 195.809ZM236.351 194.346V193.792L239.608 195.283V195.724L236.351 197.217V196.657L238.935 195.508L236.351 194.346ZM248.043 194.346L245.466 195.508L248.043 196.657V197.217L244.786 195.724V195.283L248.043 193.792V194.346ZM251.027 195.809C251.463 195.909 251.759 196.04 251.916 196.202C252.076 196.364 252.155 196.594 252.155 196.893C252.155 197.28 252.019 197.584 251.745 197.805C251.474 198.024 251.097 198.133 250.614 198.133C250.149 198.133 249.789 198.022 249.534 197.798C249.281 197.573 249.152 197.25 249.147 196.831H249.739C249.762 197.082 249.85 197.271 250.005 197.398C250.163 197.524 250.385 197.586 250.672 197.586C250.938 197.586 251.149 197.531 251.304 197.419C251.461 197.307 251.54 197.156 251.54 196.964C251.54 196.823 251.5 196.715 251.42 196.64C251.343 196.562 251.191 196.495 250.966 196.438L250.279 196.271C249.887 196.175 249.613 196.046 249.458 195.884C249.306 195.722 249.229 195.495 249.229 195.201C249.229 194.868 249.354 194.603 249.602 194.404C249.85 194.206 250.188 194.107 250.614 194.107C251.049 194.107 251.395 194.209 251.653 194.415C251.913 194.617 252.042 194.889 252.042 195.228V195.242H251.441C251.43 195.053 251.351 194.904 251.205 194.797C251.059 194.688 250.862 194.633 250.614 194.633C250.363 194.633 250.172 194.68 250.04 194.773C249.91 194.867 249.845 195.002 249.845 195.18C249.845 195.308 249.885 195.408 249.964 195.481C250.046 195.552 250.202 195.614 250.433 195.669L251.027 195.809ZM253.803 196.117C253.803 196.575 253.886 196.934 254.052 197.193C254.221 197.451 254.451 197.58 254.743 197.58C255.055 197.58 255.293 197.454 255.457 197.204C255.623 196.953 255.707 196.591 255.707 196.117C255.707 195.645 255.623 195.285 255.457 195.037C255.293 194.786 255.055 194.661 254.743 194.661C254.451 194.661 254.221 194.789 254.052 195.047C253.886 195.304 253.803 195.661 253.803 196.117ZM255.713 194.821V194.24H256.332V199.456H255.72V197.426C255.579 197.676 255.423 197.858 255.252 197.969C255.083 198.079 254.878 198.133 254.637 198.133C254.195 198.133 253.84 197.952 253.574 197.59C253.307 197.225 253.174 196.734 253.174 196.117C253.174 195.501 253.306 195.013 253.57 194.65C253.837 194.288 254.192 194.107 254.637 194.107C254.876 194.107 255.081 194.164 255.252 194.278C255.423 194.389 255.577 194.571 255.713 194.821ZM258.848 193.492H257.88V192.976H259.463V197.48H260.724V198H257.58V197.48H258.848V193.492ZM261.657 194.346V193.792L264.915 195.283V195.724L261.657 197.217V196.657L264.241 195.508L261.657 194.346Z" fill="white"/>
</svg>
